<?xml version="1.0" encoding="UTF-8" standalone="no"?>
<!-- Created with Inkscape (http://www.inkscape.org/) -->

<svg
   xmlns:dc="http://purl.org/dc/elements/1.1/"
   xmlns:cc="http://creativecommons.org/ns#"
   xmlns:rdf="http://www.w3.org/1999/02/22-rdf-syntax-ns#"
   xmlns:svg="http://www.w3.org/2000/svg"
   xmlns="http://www.w3.org/2000/svg"
   xmlns:sodipodi="http://sodipodi.sourceforge.net/DTD/sodipodi-0.dtd"
   xmlns:inkscape="http://www.inkscape.org/namespaces/inkscape"
   width="64"
   height="64"
   viewBox="0 0 64.000001 64.000001"
   id="svg2"
   version="1.1"
   inkscape:version="0.91 r13725"
   sodipodi:docname="Kaefer.svg">
  <defs
     id="defs4" />
  <sodipodi:namedview
     id="base"
     pagecolor="#ffffff"
     bordercolor="#666666"
     borderopacity="1.0"
     inkscape:pageopacity="0.0"
     inkscape:pageshadow="2"
     inkscape:zoom="2.8"
     inkscape:cx="60.468176"
     inkscape:cy="78.777037"
     inkscape:document-units="px"
     inkscape:current-layer="layer1"
     showgrid="false"
     units="px"
     inkscape:window-width="1920"
     inkscape:window-height="1147"
     inkscape:window-x="-8"
     inkscape:window-y="-8"
     inkscape:window-maximized="1" />
  <metadata
     id="metadata7">
    <rdf:RDF>
      <cc:Work
         rdf:about="">
        <dc:format>image/svg+xml</dc:format>
        <dc:type
           rdf:resource="http://purl.org/dc/dcmitype/StillImage" />
        <dc:title></dc:title>
      </cc:Work>
    </rdf:RDF>
  </metadata>
  <g
     inkscape:label="Ebene 1"
     inkscape:groupmode="layer"
     id="layer1"
     transform="translate(0,-988.36216)">
    <g
       id="g4147"
       transform="matrix(0.10221629,0,0,0.10221629,-1.8790422,970.33307)">
      <path
         style="fill:#fdfdfd"
         d="m 18.428566,489.50507 0,-313 313.000004,0 313,0 0,313 0,313 -313,0 -313.000004,0 0,-313 z"
         id="path4163"
         inkscape:connector-curvature="0" />
      <path
         style="fill:#d0d0d0"
         d="m 79.928566,751.66044 c -11.357568,-5.38168 -18.15824,-16.71634 -17.229641,-28.71657 0.936135,-12.09763 6.800487,-19.96058 28.229641,-37.85045 25.376384,-21.18516 52.415594,-37.56357 77.000004,-46.64106 4.95,-1.82772 9.35762,-3.61869 9.79471,-3.97992 0.43709,-0.36123 -2.03791,-4.93253 -5.5,-10.15844 -3.46209,-5.22591 -9.44471,-15.21317 -13.29471,-22.19391 -4.70063,-8.52309 -7.65696,-12.83721 -9,-13.13351 -1.1,-0.24269 -7.4,-1.62063 -14,-3.0621 -28.82573,-6.29565 -56.777593,-18.23352 -77.924758,-33.28061 -16.983297,-12.08433 -35.089524,-31.92253 -38.053491,-41.69355 -3.174389,-10.46469 -1.18799,-24.75496 4.379987,-31.50988 8.632766,-10.47304 27.569362,-13.07604 39.290844,-5.40087 2.030923,1.32984 7.070767,6.28193 11.199653,11.00465 12.153783,13.90179 25.936665,23.94507 42.327625,30.84322 7.79734,3.28151 9.48142,3.35172 8.81811,0.36763 C 119.56165,487.44059 115.17436,473.2148 107.96201,457.87536 103.01413,447.35204 97.992227,440.28393 89.936376,432.50507 81.974681,424.81712 64.031455,402.89592 56.091485,391.15684 39.231441,366.2296 26.880066,338.98639 22.019603,316.00507 c -2.710342,-12.81508 -3.784038,-38.3481 -2.250438,-53.51654 1.498821,-14.82445 2.61249,-17.93655 8.539671,-23.86373 6.101329,-6.10133 12.3075,-8.62517 21.11973,-8.58867 12.785229,0.0529 23.115433,6.64543 28.090962,17.92694 2.308003,5.23317 2.415168,6.84764 1.960932,29.542 -0.137606,6.875 0.254388,15.54581 0.871096,19.26846 4.499797,27.16224 24.012404,62.03804 49.875964,89.14564 6.05171,6.34279 7.88184,7.52829 22.14892,14.34739 70.23925,33.57153 142.69102,50.93166 204.05213,48.89281 58.19318,-1.93359 105.41572,-16.61232 150.74811,-46.8588 8.51441,-5.68094 11.48447,-8.39898 17.55639,-16.0666 17.6179,-22.24792 30.1407,-46.0087 35.91211,-68.1397 1.81523,-6.96068 2.1244,-11.1584 2.2161,-30.0892 0.10575,-21.83131 0.12713,-22.03928 2.78959,-27.12335 3.42958,-6.54891 10.5392,-12.80455 16.98622,-14.94591 7.4929,-2.48874 17.86987,-1.60144 24.69137,2.11129 13.07187,7.1146 17.10011,18.44764 17.10011,48.10938 0,26.6373 -5.32147,48.58995 -18.3862,75.84859 -12.17725,25.40698 -27.96269,46.84724 -52.86634,71.80468 -9.77147,9.79257 -18.38467,19.28462 -19.14045,21.09344 -2.34761,5.61864 -3.49595,12.78389 -5.09173,31.77062 -0.84737,10.08219 -1.79952,20.01876 -2.11588,22.08126 -0.37295,2.43145 -0.1839,3.75 0.53767,3.75 1.75592,0 14.57679,-6.68606 24.00976,-12.52106 11.71978,-7.24956 22.10006,-15.34216 35.24721,-27.47917 13.39044,-12.36161 18.34004,-14.97614 28.37782,-14.99 9.52911,-0.0132 15.66057,2.23762 21.48639,7.88738 7.33405,7.11242 9.75967,18.67357 6.77187,32.27656 -1.08806,4.95373 -2.04983,6.20516 -13.75,17.89103 -34.47419,34.43207 -81.83916,60.44795 -122.5473,67.31086 l -6.96718,1.17459 -6.56226,11.4749 c -3.60924,6.3112 -8.90854,14.93769 -11.77622,19.16997 -2.86768,4.23228 -4.86657,7.90977 -4.44197,8.17218 0.4246,0.26241 4.42013,1.40857 8.87896,2.54701 37.45622,9.56342 65.67224,24.82515 89.7747,48.55813 11.87827,11.69618 18.81444,21.05389 20.65932,27.87185 2.59495,9.58994 -0.2761,21.23308 -7.17271,29.08788 -8.00223,9.11404 -23.64386,11.87589 -35.2101,6.21706 -4.07055,-1.99154 -7.52809,-4.86902 -11.96966,-9.96156 -8.71558,-9.99295 -14.13378,-15.0764 -22.2457,-20.8713 -20.28026,-14.48757 -50.92824,-24.38216 -86.28903,-27.8581 -12.62167,-1.2407 -9.95844,-2.00381 -24.71097,7.08055 -24.65867,15.18439 -53.93445,23.41655 -83,23.33908 -29.10436,-0.0776 -54.96934,-7.71615 -82.57705,-24.38705 -13.14494,-7.93756 -14.27384,-8.1423 -30.43806,-5.52054 -28.74744,4.66272 -59.80289,21.69858 -90.29004,49.52975 -15.68709,14.32045 -18.84731,16.00056 -30.094077,15.99921 -5.178514,-6.2e-4 -7.893592,-0.61338 -12.600777,-2.84384 z M 321.42857,430.48816 c -38.37965,-2.92353 -83.47112,-15.72564 -120.5,-34.21166 -24.00712,-11.98514 -47.79236,-26.98883 -48.30439,-30.47035 -0.21112,-1.43552 3.31253,-6.34378 11.5,-16.01889 6.49241,-7.67207 19.67939,-23.34072 29.30439,-34.81923 45.3719,-54.10926 49.65836,-58.94919 57.61134,-65.05014 14.7351,-11.30372 27.12204,-17.46628 44.38866,-22.08359 11.49552,-3.07404 34.90353,-4.27831 47,-2.41801 21.43488,3.29646 41.98068,13.21568 57.66551,27.8401 3.39102,3.16178 17.11602,17.63979 30.5,32.17336 13.38397,14.53358 36.60939,39.73358 51.61205,56 19.11754,20.72793 27.19453,30.16195 27,31.53632 -0.56123,3.96515 -31.58652,23.28886 -54.27756,33.80609 -24.48622,11.34928 -53.5692,19.58255 -80,22.64764 -13.20768,1.53166 -40.31236,2.07292 -53.5,1.06836 z"
         id="path4161"
         inkscape:connector-curvature="0" />
      <path
         style="fill:#afafb0"
         d="m 86.017859,753.42862 c -8.071755,-1.97954 -15.381392,-7.78537 -19.418511,-15.42355 -2.256804,-4.26984 -2.64302,-6.24126 -2.644754,-13.5 -0.0026,-10.91258 1.917624,-14.72516 12.851548,-25.51651 14.464732,-14.27611 32.425998,-28.23427 51.266818,-39.84076 11.78387,-7.25919 35.25453,-18.71634 44.29949,-21.62469 3.88087,-1.24786 7.05612,-2.65787 7.05612,-3.13336 0,-0.47549 -3.07175,-5.48156 -6.82612,-11.1246 -3.75437,-5.64304 -9.84845,-15.74464 -13.5424,-22.44799 l -6.71629,-12.1879 -5.70759,-1.1573 C 99.481638,577.91065 64.630115,561.05884 39.388059,535.61414 23.651938,519.75169 18.414552,510.782 18.443747,499.74434 c 0.02774,-10.48584 3.874489,-18.69395 11.193087,-23.88354 5.752268,-4.07891 9.880255,-5.35573 17.315229,-5.35573 11.312401,0 17.110231,3.1265 26.59195,14.33978 8.171799,9.66415 17.678537,17.81535 27.753847,23.79651 9.44403,5.6064 24.28085,12.0818 25.31222,11.04729 0.75429,-0.75658 -1.87191,-14.30303 -5.17304,-26.68358 -4.89264,-18.34931 -12.8022,-37.90896 -19.07738,-47.17669 -1.79623,-2.65282 -6.904914,-8.64831 -11.352637,-13.32331 -31.692203,-33.31166 -53.60883,-68.067 -64.005639,-101.5 -6.513044,-20.94399 -6.942448,-24.08902 -6.963225,-51 -0.01815,-23.50721 0.113335,-25.3345 2.201998,-30.60192 6.315967,-15.92831 24.462242,-23.26824 39.688409,-16.05345 7.431535,3.52137 12.581525,9.102 15.480085,16.77454 2.001345,5.2976 2.150245,6.92217 1.501387,16.38083 -1.165697,16.99283 -0.641608,25.99755 2.182557,37.5 6.607591,26.91185 25.627985,59.02899 49.473765,83.53959 5.87556,6.03937 7.70081,7.16182 23.86221,14.67433 55.67107,25.87827 106.87559,40.72765 160,46.40022 14.72894,1.57274 52.26485,1.55469 66.5,-0.032 47.53465,-5.29828 89.85365,-20.55635 126.99945,-45.78953 7.76894,-5.27745 11.52612,-8.68866 16.84363,-15.29263 20.19101,-25.07584 33.91801,-53.15924 38.26106,-78.27644 1.25739,-7.27188 1.44467,-12.53915 0.88511,-24.89287 -0.69123,-15.26047 -0.64581,-15.8084 1.74067,-21 4.67297,-10.16571 11.60708,-15.85108 21.48233,-17.61364 15.2079,-2.71435 30.4365,6.7717 34.16695,21.28295 3.62512,14.10154 3.22645,42.98614 -0.84884,61.5 -5.53147,25.12918 -16.03332,48.82925 -32.12582,72.5 -10.96267,16.12517 -19.31806,25.97832 -36.68648,43.26271 -11.07234,11.01878 -16.95722,17.65405 -18.25044,20.57758 -2.46508,5.57274 -4.58878,19.27716 -5.95488,38.42746 -0.59902,8.39727 -1.34509,15.93477 -1.65793,16.75 -0.31283,0.81524 -0.30587,2.16741 0.0155,3.00483 0.48137,1.25442 2.0243,0.79856 8.76047,-2.58833 18.62601,-9.36497 35.2736,-21.21435 53.36924,-37.98701 12.3343,-11.43254 17.91444,-14.28237 27.95392,-14.27634 16.55429,0.01 27.55946,10.61458 28.36129,27.3291 0.59591,12.42211 -1.51082,16.49197 -15.60323,30.14284 -33.90062,32.83846 -77.81741,57.48681 -116.3595,65.3069 -6.48257,1.3153 -12.21111,2.65387 -12.73008,2.97461 -0.51897,0.32074 -3.50008,5.16011 -6.6247,10.75416 -3.12462,5.59405 -8.37694,14.18026 -11.67184,19.08048 -3.2949,4.90021 -5.78225,9.11796 -5.52744,9.37276 0.25481,0.25481 5.3544,1.75546 11.33243,3.33477 23.41621,6.18626 46.75279,16.35776 64.00377,27.89675 17.99243,12.03494 37.50932,31.83445 43.01386,43.63673 1.74831,3.74855 2.33443,6.77462 2.34175,12.09028 0.0163,11.83566 -5.72886,20.97034 -16.99023,27.01406 -2.63333,1.41325 -5.60477,1.88051 -12,1.88702 -7.57656,0.008 -9.08656,-0.3162 -13.89912,-2.98145 -3.00403,-1.66367 -7.44011,-5.42286 -10,-8.47415 -16.32117,-19.45412 -33.02074,-30.72232 -58.1009,-39.20413 -18.3116,-6.19277 -41.64937,-10.46732 -60.64925,-11.10853 -3.26118,-0.11006 -5.35284,0.65911 -9.77268,3.59372 -15.16381,10.0682 -33.24066,18.09367 -51.02725,22.65426 -41.30647,10.59122 -82.52735,3.68665 -121.21586,-20.30388 -5.04077,-3.12576 -10.4532,-5.94083 -12.02761,-6.25571 -5.18894,-1.03779 -25.69831,2.30218 -36.65956,5.97004 -25.26826,8.45529 -51.53694,25.29584 -76.64779,49.13802 -4.125,3.91659 -9.525,8.07 -12,9.2298 -5.39114,2.52631 -14.029546,3.49391 -19.410711,2.17422 z M 313.12697,428.98732 C 273.89307,424.24733 236.06849,412.83966 200.32,394.9654 176.47864,383.04471 153.42857,368.569 153.42857,365.51703 c 0,-0.96461 13.76907,-18.12442 30.59793,-38.1329 16.82886,-20.00848 36.06566,-42.90406 42.74846,-50.87906 14.24848,-17.00361 18.58157,-21.37438 28.52591,-28.77392 20.00239,-14.88369 43.44714,-22.45727 69.6277,-22.49249 23.45676,-0.0316 42.56348,5.57319 61.22598,17.95998 8.8912,5.90132 15.88844,12.91002 54.67327,54.76284 19.85541,21.42603 43.18825,46.60317 51.85075,55.94921 8.6625,9.34604 15.75,17.79309 15.75,18.77122 0,3.31229 -30.32195,22.25681 -52,32.48851 -24.42649,11.52893 -47.5372,18.36182 -77.5,22.91359 -14.3837,2.18508 -51.02828,2.68813 -65.8016,0.90331 z"
         id="path4159"
         inkscape:connector-curvature="0" />
      <path
         style="fill:#8f8f8f"
         d="m 82.703146,751.85098 c -6.101313,-2.16043 -13.562757,-9.28069 -16.312376,-15.56648 -3.091048,-7.06631 -3.160081,-16.42538 -0.170398,-23.10139 4.918565,-10.98323 33.298118,-35.61324 60.702638,-52.68252 12.90889,-8.04048 30.38597,-16.76524 43.00556,-21.46889 5.5,-2.04999 10.16675,-3.88636 10.37055,-4.08083 0.20381,-0.19447 -2.98425,-5.43683 -7.08457,-11.64969 -4.10032,-6.21286 -10.30117,-16.47111 -13.77966,-22.79611 -3.4785,-6.325 -6.774,-11.79548 -7.32335,-12.15662 -0.54934,-0.36113 -5.09024,-1.44 -10.09089,-2.39747 C 113.77429,580.54265 84.923059,568.97397 62.423834,554.03449 45.09187,542.52608 25.506089,522.09351 20.768986,510.5787 15.039118,496.65071 20.41428,481.15735 33.457591,474.00507 c 4.809301,-2.63717 6.438516,-2.99701 13.470975,-2.97525 9.794403,0.0303 15.770567,2.57627 21.886742,9.32415 19.397307,21.40075 28.643382,28.49365 47.951872,36.78506 10.61941,4.56016 11.0511,4.50164 10.20826,-1.38396 -2.14212,-14.95841 -10.4969,-42.83402 -17.05638,-56.90839 -5.69028,-12.20935 -9.11687,-17.06294 -20.008906,-28.34161 C 54.516147,393.85469 30.970958,352.4351 22.427634,311.79299 18.01958,290.8231 18.819517,257.41962 23.983506,246.82347 c 8.55782,-17.56007 32.383732,-21.17177 46.246038,-7.01029 4.576452,4.67522 7.910425,11.39973 8.275739,16.69189 0.132881,1.925 -0.09406,9.125 -0.504302,16 -2.015114,33.76966 11.828981,67.78595 42.529859,104.5 12.07762,14.44318 15.04276,16.7622 31.39773,24.55603 48.28012,23.0075 97.05365,38.24052 145.5429,45.45618 23.38907,3.48051 60.47144,4.45447 81.99337,2.15353 49.1506,-5.25475 91.88925,-20.65444 130.13049,-46.88891 6.70677,-4.60103 10.64357,-8.27492 15.7574,-14.7051 18.83812,-23.68723 32.3586,-50.30558 37.70636,-74.2341 1.15953,-5.18835 1.56744,-11.14549 1.3926,-20.33763 -0.47661,-25.0572 -0.49796,-24.72335 1.93586,-30.27943 3.13178,-7.14944 10.53054,-13.72559 17.82996,-15.84759 14.57148,-4.23605 31.02292,3.82211 35.67456,17.47393 6.16929,18.10585 4.0206,55.87975 -4.64467,81.65309 -12.18977,36.25637 -30.67686,64.58143 -63.46158,97.23288 -16.72973,16.66173 -19.28,20.12369 -21.19145,28.76712 -2.02494,9.15668 -5.83712,51.16201 -4.74252,52.25661 0.73957,0.73958 13.17953,-5.21134 22.07672,-10.56086 14.61011,-8.78448 27.74371,-18.94675 43.09024,-33.34156 8.97079,-8.41446 14.01355,-11.01774 22.52599,-11.62882 9.4693,-0.67978 15.9113,1.67172 22.42547,8.18589 8.29773,8.29774 10.6754,19.61567 6.47071,30.80123 -2.29691,6.11034 -4.86434,9.13645 -18.30586,21.57626 -34.47568,31.90642 -74.78327,53.68679 -113.86862,61.52937 l -11.29144,2.26565 -6.55268,11.45812 c -3.60398,6.30196 -8.90194,14.92529 -11.77325,19.16295 -2.87131,4.23766 -5.22056,8.35008 -5.22056,9.13871 0,0.8605 1.47249,1.71011 3.68236,2.12468 7.38649,1.38572 27.06495,7.53855 36.73905,11.48715 24.48524,9.99392 42.89643,22.09145 60.07859,39.47612 16.89182,17.09091 21.41224,25.51387 20.06774,37.39251 -1.65861,14.65377 -13.95753,25.66834 -28.50012,25.52393 -10.91203,-0.10835 -15.00729,-2.53506 -28.51435,-16.89657 -15.8847,-16.88956 -27.11668,-24.29102 -49.55327,-32.65377 -13.40886,-4.99787 -32.2906,-9.38223 -48.64394,-11.29518 -18.83968,-2.20379 -18.21669,-2.29888 -29.21369,4.45901 -17.47657,10.73975 -36.49727,18.41515 -56.14237,22.65509 -11.88288,2.56464 -44.72259,2.63777 -57.0762,0.1271 -18.55764,-3.77154 -40.06955,-12.64659 -57.38288,-23.67416 -7.51788,-4.78844 -8.32827,-5.06946 -14.61901,-5.06946 -15.61733,0 -34.85649,5.30377 -53.11198,14.64168 -19.60606,10.02874 -32.93249,19.69793 -57.57702,41.77585 -5.37437,4.81466 -9.89802,7.96182 -12.92814,8.99429 -5.73628,1.95455 -14.404749,1.92602 -20.030194,-0.0659 z M 326.42857,429.40043 c -47.69986,-2.72072 -99.44533,-18.86581 -146.5,-45.70941 -9.63622,-5.49724 -25.09598,-15.72322 -26.01249,-17.20616 -0.87324,-1.41293 0.52038,-3.3672 12.1648,-17.05863 5.41623,-6.36837 24.90048,-29.49478 43.29834,-51.39204 22.26549,-26.50054 35.8057,-41.75668 40.49371,-45.62542 13.65163,-11.26587 29.72504,-19.20751 48.55564,-23.99063 8.34741,-2.1203 11.62318,-2.40312 27,-2.33103 15.5309,0.0728 18.5921,0.3745 27.20581,2.68119 18.57765,4.97497 35.37782,14.52226 48.80781,27.73677 4.19227,4.125 15.91672,16.54294 26.05434,27.59542 10.13762,11.05249 31.93204,34.60974 48.43204,52.34946 32.81229,35.27762 32.97919,35.47075 32.00947,37.03979 -1.02702,1.66176 -22.90649,16.043 -33.00947,21.69693 -45.86276,25.66616 -95.96769,37.21013 -148.5,34.21376 z"
         id="path4157"
         inkscape:connector-curvature="0" />
      <path
         style="fill:#6f6f6f"
         d="m 86.928566,752.62885 c -8.612688,-2.23884 -15.658901,-7.73845 -19.731227,-15.40034 -3.286967,-6.18427 -3.22455,-19.36046 0.121854,-25.72344 5.550542,-10.55401 35.010197,-35.36632 61.109377,-51.46919 12.12188,-7.47906 34.79591,-18.5713 44.03458,-21.54193 3.93075,-1.2639 7.36529,-2.86735 7.63232,-3.56321 0.26702,-0.69586 -2.61679,-5.9138 -6.40848,-11.59543 -3.79169,-5.68163 -9.93117,-15.83485 -13.6433,-22.5627 -3.71214,-6.72785 -7.10758,-12.45387 -7.54545,-12.72448 -0.43786,-0.27061 -6.24225,-1.64191 -12.89865,-3.04732 C 91.876362,574.92465 51.069305,551.78749 28.124582,521.79571 15.366719,505.11949 15.147014,491.84513 27.423626,479.44453 c 6.166373,-6.22865 11.893565,-8.53012 20.397932,-8.19692 11.106406,0.43516 16.385907,3.8607 29.507416,19.14553 5.974605,6.95962 16.15762,15.00955 26.099596,20.63237 9.37943,5.30468 23.07002,10.80954 24.1636,9.71596 1.59768,-1.59768 -5.00202,-29.25062 -11.27352,-47.2364 -1.63014,-4.675 -5.17559,-13.05173 -7.87878,-18.61496 -4.34622,-8.94464 -6.45354,-11.78651 -18.213099,-24.5618 -17.102473,-18.5797 -22.718974,-25.52386 -33.018234,-40.82324 -26.561116,-39.45611 -39.294212,-78.6792 -37.46736,-115.41464 1.072132,-21.55906 3.228011,-28.37032 11.201052,-35.38847 8.953968,-7.8816 20.689801,-9.43412 31.286549,-4.13886 6.485473,3.24083 9.912604,6.62426 13.497586,13.3255 2.076989,3.88241 2.184565,5.15184 1.892013,22.3261 -0.475389,27.90775 2.208863,39.98209 14.403575,64.79037 7.530281,15.3192 19.068048,32.05857 32.800488,47.58801 l 9.89386,11.18856 15.60614,7.46361 c 55.47323,26.53001 110.82471,42.82969 164.10613,48.32531 14.68362,1.51452 52.36089,1.49912 66,-0.027 48.88082,-5.46931 91.92873,-20.9967 128.52182,-46.35784 7.71569,-5.34742 11.60963,-8.92869 16.92199,-15.56319 17.40075,-21.73146 30.13659,-45.93668 36.32217,-69.0324 2.36136,-8.81687 2.5738,-11.30825 2.65057,-31.08509 l 0.0835,-21.49997 2.94896,-5.32355 c 5.23749,-9.45487 13.70352,-14.43834 24.55104,-14.45179 8.80896,-0.0109 15.69744,3.03272 21.51954,9.5083 5.48683,6.10268 7.01362,10.9267 8.58389,27.12157 2.85034,29.39687 -4.44634,62.38935 -20.82138,94.14547 -12.43038,24.10621 -33.73345,51.48884 -56.37269,72.46053 -7.43492,6.88728 -10.84373,10.83873 -12.53251,14.52749 -2.6467,5.78116 -4.84619,19.59003 -6.37316,40.01198 -0.57573,7.7 -1.3025,15.41097 -1.61505,17.13548 -0.32274,1.78083 -0.10318,3.42291 0.5082,3.80077 2.3057,1.42499 31.83905,-15.52469 44.10316,-25.31153 6.70936,-5.35412 18.834,-15.88281 24.5,-21.27511 6.87412,-6.54206 13.18656,-9.17449 22,-9.17449 11.75299,0 20.40347,5.3935 25.60837,15.96658 3.3541,6.81344 3.33921,17.9251 -0.0327,24.3583 -3.29432,6.28526 -15.34214,18.42417 -30.07571,30.30313 -32.41729,26.13646 -67.02705,43.62945 -99.25982,50.16939 -6.54435,1.32783 -12.51873,2.92873 -13.2764,3.55754 -0.75768,0.62881 -3.91325,5.68293 -7.0124,11.23137 -3.09914,5.54844 -8.33666,14.10631 -11.63892,19.01749 -3.7084,5.51517 -5.64796,9.28558 -5.07263,9.86091 0.51232,0.51232 5.84295,2.229 11.84583,3.81484 42.76116,11.2966 78.30924,32.96267 99.69994,60.76575 6.87763,8.93936 8.67048,13.44286 8.67048,21.77958 0,8.32134 -2.27911,14.14619 -7.76079,19.83473 -6.19476,6.42853 -10.43274,8.13949 -20.19529,8.15327 -7.56941,0.0107 -9.08772,-0.31352 -13.8682,-2.96126 -3.51633,-1.94757 -7.37304,-5.42679 -11.17986,-10.08556 -13.82059,-16.91358 -29.54047,-27.67279 -52.65834,-36.04112 -18.18678,-6.58334 -39.30944,-10.97084 -58.02859,-12.05341 l -11.23499,-0.64974 -5.53769,3.67682 c -26.00636,17.26725 -58.8587,27.54961 -88.20795,27.60795 -27.39271,0.0544 -58.76025,-9.31787 -82.83365,-24.74991 -11.51613,-7.38231 -12.15454,-7.5454 -24.43251,-6.24147 -5.78502,0.61437 -13.13177,1.78696 -16.3261,2.60575 -26.66651,6.8353 -57.07416,24.89216 -83.05219,49.31858 -5.73446,5.39194 -12.38685,10.75107 -14.78311,11.90917 -4.88539,2.3611 -13.816798,3.48014 -18.356824,2.29998 z M 312.87134,427.97084 c -38.00846,-4.37414 -77.01067,-16.19994 -113.0464,-34.27664 -21.2105,-10.63988 -43.85002,-24.60179 -45.07699,-27.79921 -0.32643,-0.85066 1.08697,-3.4562 3.35255,-6.1803 33.32225,-40.06614 84.29365,-99.86623 88.44501,-103.76443 22.518,-21.1449 59.33333,-33.2316 89.88306,-29.50917 14.47152,1.76333 24.4137,4.62788 36.5,10.51643 18.27772,8.90505 20.58826,11.03149 69.61787,64.07069 9.13983,9.88727 27.47038,29.67686 40.73455,43.97686 13.26417,14.3 24.11806,26.675 24.11975,27.5 0.003,1.68562 -17.25598,13.4703 -31.84959,21.74678 -41.70995,23.65497 -87.06443,35.48827 -134.61645,35.12236 -9.35337,-0.072 -21.98189,-0.70349 -28.06336,-1.40337 z"
         id="path4155"
         inkscape:connector-curvature="0" />
      <path
         style="fill:#4e4e4f"
         d="M 82.752793,750.86753 C 72.273942,747.15445 64.983047,736.30341 65.03967,724.50507 c 0.05782,-12.04661 5.245033,-19.27555 26.888896,-37.47253 24.830834,-20.87642 53.801804,-38.30522 78.500004,-47.22524 5.225,-1.88706 9.89775,-3.82229 10.38388,-4.3005 0.508,-0.49974 -2.29458,-5.68172 -6.59037,-12.18561 -4.11084,-6.22387 -10.49264,-16.80514 -14.18178,-23.51393 -3.68914,-6.7088 -7.47347,-12.41928 -8.40963,-12.68996 -0.93615,-0.27067 -6.4271,-1.46401 -12.2021,-2.65185 C 109.18362,578.24446 78.817577,565.304 57.670294,549.62425 41.294393,537.48226 26.683752,521.50676 21.134257,509.67517 c -2.542695,-5.42105 -2.892981,-7.144 -2.439665,-12 0.61455,-6.58316 3.760318,-13.1005 8.767136,-18.16357 5.651119,-5.71461 10.252688,-7.48411 19.493532,-7.49611 11.172578,-0.0145 15.596464,2.40354 25.974364,14.19729 13.214913,15.01781 28.407976,25.88649 45.669506,32.67062 9.66884,3.80006 10.22578,3.66709 9.44034,-2.25388 -1.99517,-15.04033 -10.44939,-43.24511 -17.60499,-58.73337 -5.17026,-11.19099 -8.75855,-16.24643 -19.44188,-27.39108 -24.098711,-25.13933 -43.525859,-53.30546 -54.996172,-79.7353 -4.626598,-10.66058 -9.867374,-25.89423 -11.615952,-33.7647 -2.26374,-10.18926 -4.95191,-29.98451 -4.95191,-36.46508 0,-8.75446 2.611075,-27.16833 4.490164,-31.66562 3.905962,-9.34829 13.102344,-15.97138 23.643016,-17.02734 10.007367,-1.00253 22.320115,5.74576 26.914238,14.75099 3.335021,6.53718 3.897099,11.43515 2.747318,23.94025 -3.302753,35.92094 13.444274,74.58769 50.160918,115.81516 6.25748,7.02624 7.24642,7.69025 22.56046,15.14761 56.30824,27.42001 118.47868,45.14078 172.28103,49.10616 60.84379,4.48436 118.56938,-7.426 166.66264,-34.38702 25.61041,-14.35717 32.91827,-20.86133 47.5564,-42.32626 19.88155,-29.15373 29.38368,-55.80758 28.83549,-80.88468 -0.53659,-24.54705 -0.45538,-25.59552 2.41212,-31.14202 10.98828,-21.25417 41.92121,-20.02796 51.12696,2.02671 4.34261,10.4038 4.68312,43.66051 0.64106,62.61114 -4.18096,19.60186 -10.41616,36.32767 -20.17576,54.12113 -12.50664,22.8018 -25.78032,39.90829 -48.46725,62.46234 -8.89803,8.8459 -17.07353,17.8459 -18.16778,20 -3.06822,6.03998 -4.23995,13.13934 -6.71463,40.68295 -1.89488,21.09035 -1.89254,21.73358 0.0791,21.73358 2.60316,0 20.74961,-9.73415 31.18259,-16.72702 11.67329,-7.8242 20.57382,-14.97402 32.31879,-25.96177 10.63714,-9.95134 15.23349,-12.45441 24.02937,-13.08584 12.12344,-0.87031 21.5071,4.23625 27.40887,14.91583 2.50116,4.526 2.95751,6.44666 2.93644,12.3588 -0.0363,10.17621 -2.70629,14.6105 -17.22704,28.61024 -33.76777,32.55616 -77.39568,56.73116 -115.68588,64.10358 -6.07674,1.17002 -11.59173,2.53956 -12.25553,3.04342 -0.66379,0.50387 -3.74256,5.45575 -6.84171,11.00419 -3.09914,5.54844 -8.32176,14.08416 -11.60583,18.96827 -3.28407,4.88411 -5.82604,9.63308 -5.64883,10.55326 0.2252,1.16935 2.42682,2.16701 7.31274,3.31373 37.2271,8.73718 68.80208,25.43504 92.47417,48.90331 11.39757,11.29943 18.31917,20.7089 20.1144,27.34423 2.51141,9.2824 -1.38726,22.35557 -8.43551,28.28629 -6.07754,5.11391 -10.67399,6.77218 -18.66252,6.7329 -11.78143,-0.0579 -16.40493,-2.98533 -29.35958,-18.58918 -5.93837,-7.15276 -19.03928,-17.06059 -30.43601,-23.01787 -20.49018,-10.71058 -48.94069,-18.08062 -78.20442,-20.25868 l -8.5,-0.63264 -8,5.1401 c -20.38596,13.09825 -41.60322,21.25273 -64,24.59726 -13.44944,2.00842 -40.89291,1.43074 -52.35006,-1.10195 -18.15321,-4.01292 -38.7436,-12.68872 -55.60902,-23.431 -7.31222,-4.65744 -8.45006,-5.06913 -14,-5.06544 -20.34398,0.0135 -45.84844,8.68893 -69.79933,23.74235 -13.43955,8.44693 -22.84328,15.70403 -37.28745,28.7757 -13.74054,12.43488 -17.73556,14.53567 -27.382283,14.39898 -3.064523,-0.0434 -7.450959,-0.74478 -9.747634,-1.55859 z M 323.93551,428.40707 c -53.15457,-3.58376 -110.67626,-23.58448 -159.75694,-55.54869 -5.3625,-3.49238 -9.75,-6.7718 -9.75,-7.28762 0,-0.51581 8.45384,-10.97911 18.78631,-23.25177 10.33247,-12.27266 27.30184,-32.43892 37.70972,-44.81392 10.40787,-12.375 22.17152,-26.325 26.14143,-31 20.74815,-24.43319 49.96964,-38.43513 82.86254,-39.70491 15.46765,-0.5971 23.4781,0.31446 36.87219,4.19591 19.97662,5.789 35.17293,15.87708 52.50586,34.85606 4.09521,4.48412 10.41046,11.30652 14.03389,15.16089 11.771,12.52124 77.68794,83.88741 80.93344,87.62407 1.73504,1.9976 3.15462,3.90004 3.15462,4.22763 0,0.32759 -4.81292,3.82474 -10.69538,7.77143 -43.46271,29.1603 -87.94575,44.67359 -137.30462,47.88448 -16.12735,1.04911 -18.35388,1.04199 -35.49306,-0.11356 z"
         id="path4153"
         inkscape:connector-curvature="0" />
      <path
         style="fill:#2e2e2f"
         d="m 84.095042,750.83135 c -6.62456,-2.29011 -13.863673,-9.03263 -16.648715,-15.50663 -2.823028,-6.56231 -2.492885,-17.07601 0.732265,-23.31965 3.591659,-6.95317 23.725871,-25.40302 43.249978,-39.63183 17.1606,-12.50632 43.12479,-26.52835 60.88631,-32.88181 5.9784,-2.13853 9.11369,-3.77542 9.11369,-4.75812 0,-0.82394 -3.31131,-6.49986 -7.35847,-12.61316 -4.04715,-6.11329 -9.93813,-15.84008 -13.09105,-21.61508 -3.15292,-5.775 -6.47911,-11.2686 -7.39153,-12.208 -1.00023,-1.0298 -6.46558,-2.71992 -13.7641,-4.25643 C 100.12751,575.6837 66.596651,559.22883 43.089007,536.56937 20.419508,514.71782 14.702679,501.77896 21.818142,488.4272 c 4.975604,-9.33644 9.795627,-13.27928 19.392774,-15.86352 3.05594,-0.82288 5.841029,-0.85988 9.789138,-0.13003 7.927191,1.46542 12.312567,3.84972 17.428512,9.47575 16.506569,18.15238 20.863586,21.92763 34.500004,29.89346 5.82834,3.40468 22.42265,10.70221 24.33641,10.70221 1.97906,0 1.89584,-2.99672 -0.39088,-14.07576 -4.13298,-20.024 -9.43721,-36.70993 -16.37757,-51.52029 -5.27262,-11.25147 -8.85746,-16.22494 -20.112919,-27.90395 -38.427226,-39.87324 -61.76862,-83.70766 -68.691229,-129 -2.138266,-13.98997 -2.62368,-24.15167 -1.433069,-30 0.559848,-2.75 1.517622,-8.36219 2.128386,-12.47154 2.351536,-15.82161 12.663176,-25.04553 27.969006,-25.01869 10.803026,0.0189 21.221793,7.42955 25.129577,17.87404 1.843265,4.92656 1.964237,6.83437 1.364001,21.51111 -0.518467,12.67734 -0.314866,18.06995 0.956609,25.33695 4.521224,25.8406 19.271627,54.23853 42.212148,81.26813 12.36528,14.56935 14.55703,16.26627 31.49168,24.38188 49.93934,23.93249 103.56719,40.24024 153.15643,46.57352 23.48329,2.99916 61.79492,3.02362 84.55186,0.054 43.50931,-5.67772 87.15568,-22.35469 121.50854,-46.42757 6.78691,-4.75595 10.92452,-8.62983 15.76989,-14.76472 18.01066,-22.80391 30.46891,-46.47713 36.69711,-69.73199 2.36136,-8.81687 2.5738,-11.30825 2.65057,-31.08509 0.0784,-20.18524 0.21868,-21.75283 2.29483,-25.63445 7.23301,-13.52306 22.94601,-18.68191 36.58191,-12.01048 10.6163,5.19406 14.83924,12.75813 16.66803,29.85552 3.16105,29.55258 -2.51379,58.96897 -17.41811,90.28941 -12.51619,26.30195 -26.7717,45.83591 -51.5338,70.61544 -9.68168,9.68849 -18.33861,18.73804 -19.23763,20.11012 -3.59736,5.49027 -5.97716,18.80361 -7.75434,43.38033 -0.52125,7.20823 -1.24472,14.96324 -1.60773,17.23336 -0.51108,3.19616 -0.31825,4.25862 0.85462,4.70869 2.22384,0.85337 19.72843,-8.26609 33.36005,-17.37976 12.10616,-8.0938 24.12721,-17.8347 34.87562,-28.26043 3.3,-3.20093 8.25,-6.82013 11,-8.04266 6.40067,-2.84547 16.12964,-3.08686 22.6711,-0.56251 8.32355,3.21205 16.11158,13.80929 17.425,23.71033 0.52058,3.9243 0.12513,5.76589 -2.41791,11.26015 -3.6521,7.89037 -7.23857,11.98682 -21.11582,24.11841 -35.15627,30.73384 -74.69023,51.91366 -108.56237,58.16092 -14.45992,2.66694 -13.29277,1.83561 -20.5,14.60162 -3.575,6.33233 -9.14283,15.39444 -12.37296,20.13803 -3.23013,4.74359 -5.63054,9.25647 -5.33423,10.02862 0.30918,0.80571 4.5132,2.36688 9.86648,3.66392 37.27114,9.0304 69.60963,26.58895 92.38,50.15877 14.66592,15.18082 18.70634,22.21836 18.64714,32.47933 -0.0901,15.60973 -11.72877,27.31659 -27.18643,27.34559 -10.12698,0.019 -14.57771,-2.60166 -26.80939,-15.78579 -5.67016,-6.11168 -13.278,-13.33532 -16.9063,-16.05252 -21.33707,-15.97918 -57.85902,-27.80763 -91.94729,-29.77919 l -11.16297,-0.64564 -7.33703,4.72683 c -37.48935,24.15227 -82.30083,32.24913 -122.31032,22.09989 -17.14936,-4.3503 -33.83064,-11.85838 -52.45242,-23.60833 -5.15231,-3.251 -5.83262,-3.41114 -13.5,-3.17787 -32.89307,1.00073 -69.17517,19.0843 -105.57428,52.61988 -5.775,5.32068 -12.32492,10.56282 -14.55538,11.64921 -5.771769,2.81124 -14.792822,3.38066 -20.778148,1.31154 z M 312.92857,426.98411 C 274.04865,422.43464 236.295,410.98877 199.82494,392.6942 c -22.91597,-11.4954 -44.77325,-25.19168 -44.20607,-27.70055 0.17034,-0.75345 9.0847,-11.81607 19.8097,-24.58361 10.725,-12.76753 29.34336,-34.95673 41.37414,-49.30933 25.82742,-30.81187 29.60193,-34.81692 39.59067,-42.00887 15.50899,-11.16656 32.8228,-18.13679 52.19702,-21.01359 12.45401,-1.84924 18.85908,-1.95935 29.51581,-0.50741 19.7484,2.69064 37.30465,9.73898 52.18259,20.94984 4.91019,3.69994 14.85096,13.42902 25.35798,24.81799 9.50499,10.30282 33.70679,36.43688 53.78179,58.07569 20.075,21.63882 36.64,39.93295 36.81112,40.65363 0.17399,0.73281 -4.42976,4.49112 -10.44538,8.52716 -48.46344,32.51542 -99.01928,48.16387 -154.40607,47.79301 -9.60282,-0.0643 -22.40967,-0.69612 -28.45967,-1.40405 z"
         id="path4151"
         inkscape:connector-curvature="0" />
      <path
         style="fill:#000002"
         d="m 83.813918,749.94057 c -10.448266,-3.83923 -17.375087,-13.99199 -17.353621,-25.4355 0.01604,-8.55248 2.321435,-13.45319 10.19927,-21.6812 23.300435,-24.33617 62.028253,-49.72283 94.263863,-61.79137 7.27104,-2.72217 11.10328,-4.67925 11.31496,-5.77843 0.17606,-0.91417 -3.02173,-6.74417 -7.10618,-12.95556 -4.08446,-6.21139 -10.43177,-16.78136 -14.10515,-23.48881 -3.67338,-6.70745 -7.44828,-12.43568 -8.38868,-12.72939 -0.9404,-0.29372 -6.13259,-1.44037 -11.53821,-2.54812 C 101.9874,575.517 67.573619,558.77792 43.724891,536.16822 33.252676,526.24008 26.036538,516.98158 21.920843,508.19306 c -4.139506,-8.83937 -4.157301,-8.59193 1.505577,-20.93532 4.716997,-10.28165 16.055716,-15.98296 27.811891,-13.98433 8.167958,1.38862 13.089518,4.71583 21.734812,14.69378 8.564256,9.88442 11.106596,12.22341 20.195533,18.58018 11.420194,7.98724 32.802904,17.97622 35.246984,16.46569 3.38347,-2.0911 -4.3083,-35.27476 -13.33001,-57.50799 -6.21205,-15.30908 -11.84301,-24.24609 -21.72381,-34.47831 -38.066224,-39.42008 -62.04469,-82.0053 -69.543803,-123.50824 -3.72976,-20.64191 -2.667874,-49.7774 2.176494,-59.71755 9.843127,-20.19709 39.436147,-18.99047 48.455561,1.97573 2.010337,4.67315 2.10225,5.9992 1.463021,21.10739 -0.547564,12.94171 -0.352281,17.9945 0.990212,25.62098 5.359031,30.44374 23.815345,63.69222 50.965245,91.81231 6.46642,6.6975 8.3473,7.9392 22.37031,14.76814 49.3714,24.04296 104.50389,40.83891 155.68971,47.43042 13.93393,1.79436 54.90069,2.40284 70.63475,1.04914 48.7683,-4.19583 96.24014,-21.00466 134.33705,-47.56607 7.23297,-5.04287 11.05506,-8.62813 16.30072,-15.29069 25.24165,-32.05963 39.21149,-64.60342 39.56258,-92.16391 0.0738,-5.79664 -0.0356,-14.58934 -0.24326,-19.53934 -0.32557,-7.76188 -0.0663,-9.65626 1.88504,-13.77039 6.83194,-14.40458 24.36823,-19.6495 38.16521,-11.4148 11.39248,6.79957 14.37263,15.98502 14.33557,44.18519 -0.0249,18.92922 -2.08616,32.25102 -7.58174,49 -11.54489,35.18551 -30.85369,64.73018 -63.4954,97.15524 -8.94934,8.88994 -17.20329,17.99799 -18.35362,20.25282 -2.70211,5.29658 -5.66854,23.50893 -7.01881,43.09194 -0.58781,8.525 -1.31588,16.43144 -1.61794,17.56986 -0.33537,1.26398 0.10292,2.61106 1.12573,3.45991 1.46811,1.21843 2.95085,0.74135 12.00852,-3.86379 18.45937,-9.3852 36.71883,-22.33704 53.67769,-38.07479 11.0209,-10.22736 15.32559,-12.7855 23.04046,-13.69223 10.84484,-1.2746 23.37808,5.21847 26.78445,13.87616 0.69785,1.77369 2.09951,5.11652 3.11479,7.42852 1.73651,3.9544 1.74989,4.48803 0.22568,9 -3.51934,10.41799 -4.9307,12.26719 -20.38747,26.71214 -33.3306,31.14875 -77.4324,54.73964 -114.28622,61.13388 -5.04932,0.87607 -9.73457,2.05263 -10.41166,2.61457 -0.6771,0.56194 -4.01833,6.02316 -7.42496,12.13604 -3.40663,6.11287 -8.89902,15.1246 -12.20532,20.02605 -6.98864,10.36038 -6.87846,11.40541 1.411,13.38339 22.89056,5.46202 46.17831,14.6616 63.32353,25.0153 20.26548,12.23797 41.37771,32.30661 48.68133,46.27499 3.45198,6.60202 3.31581,16.64531 -0.32025,23.61974 -4.88864,9.37705 -13.88971,14.7707 -24.39962,14.62082 -8.50897,-0.12135 -14.6282,-3.40776 -22.02786,-11.83036 -7.78867,-8.86539 -16.31076,-17.02566 -22.10206,-21.16368 -21.71077,-15.51285 -56.95652,-26.52607 -92.47593,-28.89588 l -9.73802,-0.64971 -5.65335,3.75362 c -3.10935,2.06448 -10.20224,6.14623 -15.76198,9.07054 -51.26738,26.96557 -106.61205,24.53735 -156.05417,-6.84678 l -8.94553,-5.67831 -8.39738,0 c -31.77978,0 -71.39275,19.65422 -107.13824,53.15732 -5.18469,4.85944 -11.48469,9.83365 -14.00001,11.05381 -5.699677,2.76487 -14.997958,3.31517 -20.687952,1.22437 z M 334.42857,427.7785 c -56.13648,-1.95675 -117.08203,-22.01417 -168.75,-55.5363 -5.0875,-3.30077 -9.25,-6.45366 -9.25,-7.00642 0,-0.55277 2.54331,-3.98081 5.65179,-7.61787 3.10849,-3.63706 16.94599,-20.07356 30.75,-36.52555 13.80402,-16.45198 31.17321,-37.13146 38.59821,-45.95439 7.425,-8.82293 16.425,-18.40374 20,-21.29069 35.26499,-28.4778 83.37562,-34.29471 122.25664,-14.78168 15.59746,7.82782 21.20029,12.79988 51.09247,45.34043 18.59224,20.23947 48.5791,52.59587 68.82121,74.25941 6.50633,6.96321 11.82968,13.10556 11.82968,13.64967 0,1.19294 -19.00612,13.81247 -31.5,20.91511 -19.37429,11.01408 -42.9357,20.50397 -65.36783,26.32837 -20.82886,5.40811 -52.87102,8.96101 -74.13217,8.21991 z"
         id="path4149"
         inkscape:connector-curvature="0" />
    </g>
  </g>
</svg>
