<?xml version="1.0" encoding="UTF-8" standalone="no"?>
<!-- Created with Inkscape (http://www.inkscape.org/) -->

<svg
   xmlns:dc="http://purl.org/dc/elements/1.1/"
   xmlns:cc="http://creativecommons.org/ns#"
   xmlns:rdf="http://www.w3.org/1999/02/22-rdf-syntax-ns#"
   xmlns:svg="http://www.w3.org/2000/svg"
   xmlns="http://www.w3.org/2000/svg"
   xmlns:sodipodi="http://sodipodi.sourceforge.net/DTD/sodipodi-0.dtd"
   xmlns:inkscape="http://www.inkscape.org/namespaces/inkscape"
   width="64"
   height="64"
   viewBox="0 0 64.000001 64.000001"
   id="svg2"
   version="1.1"
   inkscape:version="0.91 r13725"
   sodipodi:docname="Record_off.svg">
  <defs
     id="defs4" />
  <sodipodi:namedview
     id="base"
     pagecolor="#ffffff"
     bordercolor="#666666"
     borderopacity="1.0"
     inkscape:pageopacity="0.0"
     inkscape:pageshadow="2"
     inkscape:zoom="11.2"
     inkscape:cx="32.197965"
     inkscape:cy="42.338351"
     inkscape:document-units="px"
     inkscape:current-layer="layer1"
     showgrid="false"
     units="px"
     inkscape:window-width="1920"
     inkscape:window-height="1147"
     inkscape:window-x="-8"
     inkscape:window-y="-8"
     inkscape:window-maximized="1" />
  <metadata
     id="metadata7">
    <rdf:RDF>
      <cc:Work
         rdf:about="">
        <dc:format>image/svg+xml</dc:format>
        <dc:type
           rdf:resource="http://purl.org/dc/dcmitype/StillImage" />
        <dc:title></dc:title>
      </cc:Work>
    </rdf:RDF>
  </metadata>
  <g
     inkscape:label="Ebene 1"
     inkscape:groupmode="layer"
     id="layer1"
     transform="translate(0,-988.36216)">
    <g
       id="g4157"
       transform="matrix(0.14058894,0,0,0.13956766,70.616327,1074.1067)">
      <path
         style="fill:#f4a5a5"
         d="m -291.83571,-163.80319 c -67.70246,-5.1599 -129.79934,-42.55857 -168.21509,-101.30974 -7.53825,-11.52863 -18.2173,-33.53586 -22.89973,-47.19145 -27.80879,-81.10003 -7.35029,-170.08661 52.94562,-230.29306 33.99242,-33.94199 75.91431,-55.20695 123.3192,-62.55389 14.6102,-2.26433 40.2322,-2.72024 55.69232,-0.99097 75.79402,8.47781 141.13407,54.40085 174.291214,122.49733 10.969722,22.52906 17.029827,41.69259 20.776401,65.7 2.098494,13.44683 2.376144,49.40965 0.47943,62.10001 -5.413347,36.21923 -17.842086,68.43347 -37.20159,96.42336 -38.775785,56.06188 -98.907515,90.66225 -166.337775,95.71232 -13.55701,1.01533 -18.48063,1.00125 -32.85,-0.0939 z"
         id="path4163"
         inkscape:connector-curvature="0" />
      <path
         style="fill:#ea6363"
         d="m -302.63571,-166.00276 c -29.90973,-4.06217 -62.16355,-15.56221 -86.85,-30.96622 -54.54237,-34.0337 -90.92847,-88.56536 -101.80589,-152.57598 -2.41826,-14.2308 -3.23583,-41.36676 -1.71411,-56.89291 3.5643,-36.36648 17.0485,-73.98702 36.70544,-102.4071 22.63148,-32.72068 51.35396,-57.74717 85.26456,-74.2928 20.82303,-10.15996 41.42484,-16.72395 63.45,-20.21596 12.74653,-2.02091 41.09061,-2.74824 54.56547,-1.40019 48.66243,4.86829 95.03244,26.34181 130.24123,60.3135 36.959888,35.66126 59.022821,79.62114 66.422585,132.34545 1.759374,12.53574 1.522323,43.71513 -0.434502,57.15001 -6.953193,47.73826 -27.187677,89.15491 -60.330523,123.48664 -35.90962,37.19773 -81.27346,59.7165 -132.84065,65.94257 -10.57181,1.27641 -41.8166,0.98752 -52.67361,-0.48701 z M -459.6962,-403.09497 c 6.77643,-63.24017 45.30669,-118.57134 102.16049,-146.70702 73.32854,-36.28866 161.14333,-21.50469 217.4036,36.60076 9.13855,9.43827 17.85479,20.51378 24.2175,30.77259 4.86795,7.84874 13.5289,24.44429 13.5289,25.92318 0,0.4791 0.78142,1.70983 1.73648,2.73498 1.669012,1.79147 1.957507,1.81316 7.424998,0.55834 3.128688,-0.71806 6.012306,-1.62197 6.408036,-2.0087 1.793061,-1.75228 -10.285407,-27.04278 -19.807594,-41.47413 -36.81206,-55.7905 -100.52418,-90.00454 -167.59323,-89.99924 -102.36064,0.008 -188.59539,76.98505 -199.9398,178.47512 -0.76281,6.82438 -0.80376,10.00925 -0.13727,10.67575 1.36063,1.36063 12.23985,5.08319 12.97183,4.43859 0.3374,-0.29712 1.06912,-4.79272 1.62606,-9.99022 z"
         id="path4161"
         inkscape:connector-curvature="0" />
      <path
         style="fill:#df1819"
         d="m -299.93571,-166.49429 c -46.28189,-5.53837 -92.95154,-27.70166 -125.42746,-59.56516 -15.90192,-15.60205 -26.99229,-29.5532 -37.22563,-46.82804 -15.96318,-26.94734 -26.40223,-59.08566 -29.51803,-90.87599 -1.37157,-13.99401 -0.69774,-41.27633 1.3382,-54.18149 8.41386,-53.33309 35.53914,-101.69889 76.08292,-135.6599 41.45505,-34.72433 92.34637,-52.40148 146.25,-50.80008 19.0481,0.56588 29.72083,1.96897 46.35,6.09338 63.10768,15.65215 115.96151,58.61896 144.373599,117.3666 9.706968,20.07108 15.988644,40.506 19.560672,63.63283 2.380023,15.40925 2.826,45.26362 0.884619,59.21718 -7.1316,51.25777 -27.82314,93.49153 -63.07525,128.74364 -32.63117,32.63117 -71.32378,52.74038 -117.94364,61.29733 -8.32351,1.52775 -14.66732,1.95077 -32.4,2.1605 -12.1275,0.14344 -25.29,-0.12692 -29.25,-0.6008 z m 60.04667,-18.70094 c 56.33488,-10.28157 104.21551,-41.86088 135.38462,-89.29193 7.257125,-11.04339 18.203285,-33.62613 22.224098,-45.84995 16.534467,-50.26704 13.132476,-104.7362 -9.566919,-153.17536 -18.076689,-38.57459 -52.114379,-73.13252 -91.528539,-92.92751 -28.56144,-14.34442 -57.94479,-21.16539 -91.09946,-21.14761 -23.45366,0.0126 -41.26094,2.81324 -62.88602,9.89043 -75.77535,24.79879 -129.77516,91.41 -138.55462,170.91334 -1.39225,12.60776 -0.67659,40.00454 1.38897,53.1717 12.17835,77.6325 68.58933,141.5347 144.1389,163.28015 21.81415,6.27877 33.29321,7.68886 59.7023,7.33382 15.89763,-0.21372 22.51681,-0.68595 30.79667,-2.19708 z m -55.35987,-15.80378 c -23.03715,-2.94489 -40.36567,-8.0968 -60.4868,-17.98322 -35.95746,-17.66751 -62.42236,-43.09151 -81.725,-78.51064 -13.9703,-25.6346 -22.225,-57.83156 -22.225,-86.68725 0,-8.76366 0.61694,-9.41221 7.24976,-7.62121 25.14653,6.79007 63.33156,7.59057 101.19122,2.12136 32.41227,-4.68228 61.29589,-11.66745 133.65902,-32.32391 63.42226,-18.10422 105.60843,-29.31316 112.46923,-29.88324 3.78391,-0.31441 4.07602,0.19136 8.427428,14.59215 22.034673,72.92277 -4.911628,154.33145 -66.212558,200.03772 -25.20179,18.79059 -50.29231,29.56556 -81.2341,34.88552 -14.11632,2.42707 -37.874,3.06513 -51.1132,1.37272 z"
         id="path4159"
         inkscape:connector-curvature="0" />
    </g>
    <rect
       style="fill:#000000;fill-opacity:0.32154344;stroke:none;stroke-width:22;stroke-linecap:round;stroke-linejoin:round;stroke-miterlimit:4;stroke-dasharray:none;stroke-opacity:0.19607843"
       id="rect4165"
       width="64"
       height="64"
       x="0"
       y="988.36218" />
  </g>
</svg>
