<?xml version="1.0" encoding="UTF-8" standalone="no"?>
<!-- Created with Inkscape (http://www.inkscape.org/) -->

<svg
   xmlns:dc="http://purl.org/dc/elements/1.1/"
   xmlns:cc="http://creativecommons.org/ns#"
   xmlns:rdf="http://www.w3.org/1999/02/22-rdf-syntax-ns#"
   xmlns:svg="http://www.w3.org/2000/svg"
   xmlns="http://www.w3.org/2000/svg"
   xmlns:xlink="http://www.w3.org/1999/xlink"
   xmlns:sodipodi="http://sodipodi.sourceforge.net/DTD/sodipodi-0.dtd"
   xmlns:inkscape="http://www.inkscape.org/namespaces/inkscape"
   width="64"
   height="64"
   viewBox="0 0 64.000001 64.000001"
   id="svg2"
   version="1.1"
   inkscape:version="0.91 r13725"
   sodipodi:docname="Settings.svg">
  <defs
     id="defs4">
    <linearGradient
       inkscape:collect="always"
       id="linearGradient4172">
      <stop
         style="stop-color:#000045;stop-opacity:1"
         offset="0"
         id="stop4174" />
      <stop
         style="stop-color:#000000;stop-opacity:0;"
         offset="1"
         id="stop4176" />
    </linearGradient>
    <radialGradient
       inkscape:collect="always"
       xlink:href="#linearGradient4172"
       id="radialGradient4178"
       cx="30.769258"
       cy="32.002529"
       fx="30.769258"
       fy="32.002529"
       r="29.650889"
       gradientTransform="matrix(0.73897356,0.84601469,-1.2039246,1.0515994,47.790557,960.69206)"
       gradientUnits="userSpaceOnUse" />
  </defs>
  <sodipodi:namedview
     id="base"
     pagecolor="#ffffff"
     bordercolor="#666666"
     borderopacity="1.0"
     inkscape:pageopacity="0.0"
     inkscape:pageshadow="2"
     inkscape:zoom="11.2"
     inkscape:cx="26.988132"
     inkscape:cy="30.427936"
     inkscape:document-units="px"
     inkscape:current-layer="layer1"
     showgrid="false"
     units="px"
     inkscape:window-width="1920"
     inkscape:window-height="1147"
     inkscape:window-x="-8"
     inkscape:window-y="-8"
     inkscape:window-maximized="1" />
  <metadata
     id="metadata7">
    <rdf:RDF>
      <cc:Work
         rdf:about="">
        <dc:format>image/svg+xml</dc:format>
        <dc:type
           rdf:resource="http://purl.org/dc/dcmitype/StillImage" />
        <dc:title></dc:title>
      </cc:Work>
    </rdf:RDF>
  </metadata>
  <g
     inkscape:label="Ebene 1"
     inkscape:groupmode="layer"
     id="layer1"
     transform="translate(0,-988.36216)">
    <path
       style="fill:url(#radialGradient4178);fill-opacity:1;fill-rule:nonzero;stroke:#000000;stroke-width:1.96894848;stroke-linecap:round;stroke-linejoin:round;stroke-miterlimit:4;stroke-dasharray:none;stroke-opacity:1"
       d="m 29.208905,1049.2199 c -0.660615,-0.1859 -1.018213,-0.3677 -1.397479,-0.7104 -0.482841,-0.4362 -0.653137,-1.0333 -0.889227,-3.118 -0.113745,-1.0043 -0.241127,-1.7438 -0.333145,-1.9338 -0.1585,-0.3273 -0.130568,-0.3146 -2.917817,-1.3289 -0.410929,-0.1496 -1.475041,-0.624 -2.364691,-1.0542 l -1.617548,-0.7823 -0.366901,0.215 c -0.201796,0.1183 -0.957204,0.6728 -1.678684,1.2323 -1.642369,1.2737 -2.06615,1.4964 -2.718738,1.4291 -0.908475,-0.094 -2.000033,-0.8564 -3.737558,-2.6113 -1.005481,-1.0155 -1.7050148,-1.9261 -1.8860908,-2.4552 -0.154266,-0.4508 -0.174163,-1.2057 -0.04101,-1.5559 0.11517,-0.3029 0.8034678,-1.2406 1.6693038,-2.2741 1.076644,-1.2851 1.093036,-1.3147 0.967043,-1.7438 -0.05906,-0.2012 -0.396186,-0.9789 -0.74918,-1.7282 -0.352994,-0.7493 -0.845144,-1.9162 -1.093667,-2.593 -0.9422948,-2.5663 -0.8632248,-2.4046 -1.2225158,-2.4999 -0.177333,-0.047 -0.975077,-0.1682 -1.772765,-0.2693 -2.870968,-0.3639 -3.387215,-0.6489 -3.820043,-2.1093 -0.355919,-1.2008 -0.331166,-5.073 0.03917,-6.1267 0.199671,-0.5681 0.555034,-1.0523 0.936306,-1.2757 0.405491,-0.2376 1.171803,-0.3956 3.064176,-0.6316 1.522288,-0.1899 1.777722,-0.2438 1.906174,-0.4025 0.08158,-0.1007 0.307629,-0.677 0.502327,-1.2806 0.4210938,-1.3055 1.0797388,-2.8955 1.7324318,-4.182 0.260731,-0.514 0.497656,-1.0525 0.526498,-1.1967 0.07267,-0.3634 -0.114946,-0.6912 -1.019108,-1.7809 -0.9362068,-1.1282 -1.5277868,-1.985 -1.6716298,-2.4208 -0.33147,-1.0044 0.346074,-2.2472 2.2785138,-4.1797 2.176614,-2.1766 3.312074,-2.6973 4.4825,-2.0556 0.261255,0.1433 1.001867,0.6847 1.645804,1.2032 1.595305,1.2847 1.813835,1.4228 2.145673,1.3564 0.147767,-0.029 0.810672,-0.3068 1.473121,-0.6162 1.622803,-0.7579 2.124236,-0.9656 3.652077,-1.5128 0.717713,-0.257 1.396188,-0.5271 1.507722,-0.6002 0.227391,-0.149 0.294075,-0.4674 0.526296,-2.5133 0.267435,-2.35613 0.476167,-2.80173 1.539729,-3.28673 0.265754,-0.1212 0.754069,-0.2633 1.085145,-0.3158 0.72214,-0.1145 3.842386,-0.121 4.584113,-0.01 0.773934,0.1163 1.502507,0.4203 1.882162,0.7855 0.495102,0.4762 0.686222,1.0966 0.894048,2.90213 0.226692,1.9694 0.311153,2.2869 0.663009,2.4924 0.149118,0.087 0.880046,0.38 1.624284,0.6508 0.744238,0.2709 2.08719,0.8238 2.984338,1.2287 0.897148,0.405 1.747576,0.7595 1.889839,0.7878 0.377569,0.075 0.646806,-0.059 1.369979,-0.6849 0.981663,-0.8491 2.095303,-1.6938 2.53651,-1.9237 0.548549,-0.286 1.215096,-0.2756 1.80194,0.028 1.877357,0.9712 4.733718,4.0995 4.928374,5.3976 0.117273,0.782 -0.111376,1.2459 -1.426345,2.8937 -1.027676,1.2878 -1.348492,1.7821 -1.348492,2.0775 0,0.1421 0.312696,0.9386 0.694881,1.7701 0.708268,1.541 1.066748,2.4097 1.639524,3.973 0.177124,0.4835 0.378814,0.9435 0.448203,1.0223 0.144899,0.1645 0.264518,0.1867 2.571774,0.4773 2.071718,0.2609 2.497992,0.417 2.909706,1.0659 0.587195,0.9255 0.841317,2.4033 0.760499,4.4226 -0.07547,1.8856 -0.334231,2.9269 -0.891039,3.5857 -0.473807,0.5606 -0.887776,0.684 -3.299075,0.9834 -0.797688,0.099 -1.57981,0.2224 -1.738049,0.2741 -0.34545,0.113 -0.47609,0.3493 -0.966883,1.7492 -0.484035,1.3806 -0.612221,1.694 -1.388657,3.395 -0.371234,0.8133 -0.693996,1.6205 -0.717249,1.7939 -0.03805,0.2837 0.01351,0.3835 0.516417,0.999 1.033725,1.2653 1.93811,2.4677 2.122324,2.8218 0.384967,0.74 0.169489,1.6254 -0.663269,2.7255 -0.513695,0.6786 -2.504425,2.6563 -3.176733,3.1559 -0.871285,0.6475 -1.242056,0.799 -1.955326,0.799 -0.603907,0 -0.650775,-0.016 -1.230593,-0.4131 -0.331527,-0.2272 -0.919214,-0.6712 -1.305971,-0.9868 -1.63238,-1.3321 -1.622369,-1.3257 -2.058438,-1.3171 -0.311314,0.01 -0.662221,0.1385 -1.545675,0.5831 -1.52912,0.7695 -2.030585,0.979 -3.726888,1.557 -1.093714,0.3727 -1.48069,0.5441 -1.603109,0.7099 -0.164505,0.2228 -0.252931,0.736 -0.427617,2.4817 -0.143334,1.4324 -0.375066,2.2347 -0.759062,2.6279 -0.419207,0.4294 -1.148731,0.744 -1.993726,0.8599 -0.962022,0.1321 -4.478815,0.109 -4.981936,-0.033 z m 5.355371,-15.9139 c 1.713938,-0.3359 3.633965,-1.1583 5.059051,-2.1668 0.922872,-0.6532 2.279163,-1.9709 2.921826,-2.8388 1.692839,-2.2861 2.595246,-5.0513 2.597799,-7.9602 0.0014,-1.5485 -0.171581,-2.6399 -0.644872,-4.0701 -1.918791,-5.7979 -7.584645,-9.5801 -13.536956,-9.0364 -3.274528,0.2992 -6.05,1.5713 -8.258274,3.7851 -1.881312,1.886 -3.04124,3.9915 -3.658323,6.6404 -0.135689,0.5825 -0.16341,1.0578 -0.161472,2.7689 0.0027,2.3067 0.07337,2.752 0.708625,4.4593 1.059405,2.8473 2.771602,4.9936 5.266201,6.6013 1.316859,0.8486 3.261507,1.6144 4.834471,1.9036 0.933818,0.1717 3.815864,0.1207 4.871924,-0.086 z"
       id="path4170"
       inkscape:connector-curvature="0" />
  </g>
</svg>
